<?xml version="1.0" encoding="UTF-8" standalone="no"?>
<svg xmlns="http://www.w3.org/2000/svg" width="200" height="200" viewBox="0 0 200 200" fill="none">
  <path d="M100 165C78.6131 165 58.2838 156.572 43.2563 141.544C28.2289 126.516 19.8008 106.187 19.8008 84.8C19.8008 63.4131 28.2289 43.0838 43.2563 28.0563C58.2838 13.0289 78.6131 4.60078 100 4.60078C121.387 4.60078 141.716 13.0289 156.744 28.0563C171.771 43.0838 180.199 63.4131 180.199 84.8H125.5L100 110.3V125.5H125.5L150.5 100.5H180.199C178.157 110.546 173.851 120.064 167.558 128.325C161.265 136.587 153.135 143.354 143.77 148.15C134.405 152.947 124.069 155.644 113.559 156.046C103.049 156.447 92.5394 154.542 82.8008 150.5" stroke="#0072CE" stroke-width="16" stroke-linecap="round" stroke-linejoin="round"/>
  <path d="M100 125.5H125.5L150.5 100.5H180.199" stroke="#FFC72C" stroke-width="16" stroke-linecap="round" stroke-linejoin="round"/>
</svg>
